# xmcd
#
# Track frame offsets: 
#        182
#        24222
#        39112
#        60712
#        85075
#        105017
#        130940
#        162795
#        187665
#        204100
#        223182
#
# Disc length: 3249 seconds
#
# Revision: 2
# Processed by: cddbd v1.5.2PL0 Copyright (c) Steve Scherf et al.
# Submitted via: ExactAudioCopy v1.1
#
DISCID=770caf0b
DTITLE=Gallagher, Rory - Calling Card
DYEAR=1976
DGENRE=Blues
TTITLE0=Do You Read Me
TTITLE1=Country Mile
TTITLE2=Moonchild
TTITLE3=Calling Card
TTITLE4=I'll Admit You're Gone
TTITLE5=Secret Agent
TTITLE6=Jack-Knife Beat
TTITLE7=Edged In Blue
TTITLE8=Barley And Grape Rag
TTITLE9=Rue The Day
TTITLE10=Public Enemy [B-Girl Version]
EXTD=CD 1999 - digitally remastered, 1998\nBMG 7 43216 01082 0 - Capo 
EXTD=108
EXTT0=
EXTT1=
EXTT2=
EXTT3=
EXTT4=
EXTT5=
EXTT6=
EXTT7=
EXTT8=
EXTT9=[Bonus Track]
EXTT10=[Bonus Track]
PLAYORDER=
